<svg style="position: absolute; width: 0; height: 0; overflow: hidden;" version="1.1" xmlns="http://www.w3.org/2000/svg" xmlns:xlink="http://www.w3.org/1999/xlink">
<defs>
<symbol id="icon-add-user" viewBox="0 0 32 32">
<title>add-user</title>
<path d="M25.582 30.606c0.018-3.406-3.498-5.422-6.907-6.891-3.397-1.462-4.482-2.694-4.482-5.334 0-1.582 1.037-1.067 1.491-3.97 0.192-1.203 1.107-0.019 1.283-2.766 0-1.094-0.501-1.366-0.501-1.366s0.254-1.621 0.354-2.869c0.102-1.307-0.637-4.096-3.682-4.952-0.531-0.546-0.891-1.411 0.747-2.278-3.584-0.166-4.418 1.709-6.326 3.088-1.624 1.21-2.062 3.125-1.984 4.144 0.104 1.248 0.357 2.869 0.357 2.869s-0.502 0.272-0.502 1.366c0.176 2.749 1.094 1.563 1.285 2.766 0.454 2.902 1.493 2.387 1.493 3.97 0 2.64-0.339 3.536-3.738 4.998-3.41 1.467-4.47 3.819-4.453 7.226 0.005 1.019-0.018 1.394-0.018 1.394h25.6c0 0-0.022-0.374-0.018-1.394zM27.2 16v-4.8h-3.2v4.8h-4.8v3.2h4.8v4.8h3.2v-4.8h4.8v-3.2h-4.8z"></path>
</symbol>
<symbol id="icon-email" viewBox="0 0 32 32">
<title>email</title>
<path d="M23.373 19.475c0 1.344 0.382 1.88 1.382 1.88 2.229 0 3.648-2.84 3.648-7.563 0-7.219-5.261-10.675-11.829-10.675-6.757 0-12.902 4.531-12.902 13.094 0 8.179 5.376 12.634 13.632 12.634 2.803 0 4.685-0.307 7.563-1.267l0.618 2.571c-2.842 0.923-5.878 1.19-8.219 1.19-10.829 0-16.629-5.952-16.629-15.13 0-9.254 6.722-15.552 15.976-15.552 9.638 0 14.744 5.76 14.744 12.826 0 5.99-1.88 10.56-7.794 10.56-2.69 0-4.454-1.075-4.685-3.458-0.691 2.65-2.534 3.458-5.032 3.458-3.341 0-6.144-2.574-6.144-7.757 0-5.222 2.459-8.448 6.875-8.448 2.342 0 3.802 0.922 4.451 2.381l1.115-2.035h3.226v11.291h0.003zM18.651 14.406c0-2.11-1.576-2.995-2.882-2.995-1.421 0-2.994 1.15-2.994 4.531 0 2.688 1.19 4.186 2.994 4.186 1.267 0 2.882-0.806 2.882-3.034v-2.688z"></path>
</symbol>
<symbol id="icon-folder" viewBox="0 0 32 32">
<title>folder</title>
<path d="M29.448 7.678c-0.178-0.704-1.048-1.278-1.936-1.278h-10.902c-0.886 0-2.128-0.509-2.755-1.131l-0.954-0.941c-0.627-0.622-1.867-1.128-2.754-1.128h-5.208c-0.888 0-1.694 0.715-1.792 1.59l-0.467 4.81h27.090l-0.322-1.922zM31.059 11.2h-30.118c-0.547 0-0.976 0.47-0.923 1.016l1.477 15.47c0.059 0.63 0.59 1.114 1.226 1.114h26.56c0.635 0 1.165-0.483 1.226-1.114l1.477-15.47c0.053-0.546-0.376-1.016-0.923-1.016z"></path>
</symbol>
<symbol id="icon-home" viewBox="0 0 32 32">
<title>home</title>
<path d="M29.875 17.6h-2.675v9.6c0 0.712-0.31 1.6-1.6 1.6h-6.4v-9.6h-6.4v9.6h-6.4c-1.29 0-1.6-0.888-1.6-1.6v-9.6h-2.675c-0.957 0-0.752-0.518-0.096-1.197l12.838-12.851c0.312-0.323 0.722-0.483 1.133-0.499 0.411 0.016 0.821 0.174 1.133 0.499l12.837 12.85c0.658 0.68 0.862 1.198-0.094 1.198z"></path>
</symbol>
<symbol id="icon-info" viewBox="0 0 32 32">
<title>info</title>
<path d="M19.891 0c2.144 0 3.216 1.459 3.216 3.131 0 2.088-1.862 4.019-4.286 4.019-2.030 0-3.214-1.2-3.158-3.184 0-1.669 1.41-3.966 4.229-3.966zM13.294 32c-1.693 0-2.933-1.043-1.749-5.638l1.942-8.147c0.338-1.302 0.394-1.826 0-1.826-0.507 0-2.702 0.899-4.003 1.787l-0.845-1.408c4.115-3.498 8.85-5.547 10.882-5.547 1.691 0 1.973 2.037 1.128 5.168l-2.226 8.563c-0.394 1.512-0.226 2.034 0.17 2.034 0.507 0 2.171-0.627 3.806-1.931l0.96 1.302c-4.003 4.075-8.376 5.643-10.066 5.643z"></path>
</symbol>
<symbol id="icon-key" viewBox="0 0 32 32">
<title>key</title>
<path d="M28.306 7.56c-0.805-4.763-5.152-7.947-9.71-7.106-4.56 0.84-8.41 4.506-7.605 9.272 0.171 1.026 0.653 2.63 1.221 3.784l-8.28 12.357c-0.306 0.456-0.478 1.278-0.387 1.826l0.533 3.154c0.093 0.547 0.595 0.915 1.12 0.822l2.426-0.45c0.525-0.094 1.19-0.557 1.478-1.022l3.275-5.298 0.029-0.035 2.218-0.41 3.824-6.206c1.256 0.222 3.059 0.147 4.125-0.050 4.557-0.842 6.539-5.872 5.734-10.638zM24.266 10.003c-1.254 1.872-2.534 0.554-4.325-0.76-1.79-1.309-3.416-2.115-2.163-3.987 1.254-1.872 3.722-2.328 5.515-1.016 1.792 1.31 2.226 3.891 0.973 5.763z"></path>
</symbol>
<symbol id="icon-lock" viewBox="0 0 32 32">
<title>lock</title>
<path d="M25.28 12.8h-2.88v-3.84c0-4.635-2.136-7.36-6.4-7.36-4.266 0-6.4 2.725-6.4 7.36v3.84h-3.2c-0.885 0-1.6 1.034-1.6 1.918v12.482c0 0.878 0.685 1.822 1.522 2.091l1.915 0.619c0.838 0.267 2.243 0.49 3.123 0.49h9.28c0.878 0 2.285-0.222 3.122-0.491l1.914-0.619c0.838-0.267 1.525-1.211 1.525-2.090v-12.482c0-0.885-1.037-1.918-1.92-1.918zM19.2 12.8h-6.4v-4.482c0-2.312 1.275-3.518 3.2-3.518s3.2 1.206 3.2 3.518v4.482z"></path>
</symbol>
<symbol id="icon-log-out" viewBox="0 0 32 32">
<title>log-out</title>
<path d="M30.4 16l-9.6-8v4.8h-11.2v6.4h11.2v4.8l9.6-8zM4.8 4.8h12.8v-3.2h-12.8c-1.76 0-3.2 1.44-3.2 3.2v22.4c0 1.76 1.44 3.2 3.2 3.2h12.8v-3.2h-12.8v-22.4z"></path>
</symbol>
<symbol id="icon-login" viewBox="0 0 32 32">
<title>login</title>
<path d="M22.4 16l-9.6-8v4.8h-11.2v6.4h11.2v4.8l9.6-8zM27.2 27.2h-12.8v3.2h12.8c1.76 0 3.2-1.44 3.2-3.2v-22.4c0-1.76-1.44-3.2-3.2-3.2h-12.8v3.2h12.8v22.4z"></path>
</symbol>
<symbol id="icon-map" viewBox="0 0 32 32">
<title>map</title>
<path d="M31.115 5.949l-9.6-4.8c-0.45-0.226-0.981-0.226-1.432 0l-9.008 4.504-8.97-2.99c-0.49-0.163-1.024-0.082-1.442 0.221-0.418 0.301-0.664 0.784-0.664 1.298v20.802c0 0.606 0.342 1.16 0.885 1.43l9.6 4.8c0.226 0.112 0.47 0.17 0.715 0.17s0.491-0.056 0.715-0.17l9.008-4.502 8.97 2.99c0.488 0.16 1.024 0.078 1.442-0.222s0.664-0.784 0.664-1.296v-20.803c0.002-0.606-0.341-1.16-0.883-1.43zM12.8 8.37l6.4-3.2v18.821l-6.4 3.2v-18.821zM3.2 6.4l6.4 2.133v18.658l-6.4-3.2v-17.59zM28.8 25.963l-6.4-2.134v-18.659l6.4 3.2v17.594z"></path>
</symbol>
<symbol id="icon-old-mobile" viewBox="0 0 32 32">
<title>old-mobile</title>
<path d="M21.76 4.8h-10.56v-4.8h-3.2v29.76c0 1.232 1.006 2.24 2.237 2.24h11.523c1.23 0 2.24-1.010 2.24-2.24v-22.718c0-1.235-1.010-2.242-2.24-2.242zM12.8 24c-1.106 0-2-0.715-2-1.6s0.894-1.6 2-1.6 2 0.715 2 1.6-0.894 1.6-2 1.6zM14.8 27.2c0 0.885-0.894 1.6-2 1.6s-2-0.715-2-1.6 0.894-1.6 2-1.6 2 0.715 2 1.6zM11.2 17.6v-9.6h9.6v9.6h-9.6zM19.2 24c-1.106 0-2-0.715-2-1.6s0.894-1.6 2-1.6 2 0.715 2 1.6-0.894 1.6-2 1.6zM21.2 27.2c0 0.885-0.894 1.6-2 1.6s-2-0.715-2-1.6 0.894-1.6 2-1.6 2 0.715 2 1.6z"></path>
</symbol>
<symbol id="icon-old-phone" viewBox="0 0 32 32">
<title>old-phone</title>
<path d="M27.61 19.605c-0.154-1.067-0.978-1.899-2.038-2.147-4.123-0.966-5.157-3.341-5.331-5.974-0.731-0.136-2.032-0.283-4.24-0.283s-3.509 0.147-4.24 0.283c-0.174 2.634-1.208 5.008-5.331 5.974-1.061 0.25-1.885 1.080-2.038 2.147l-0.795 5.507c-0.28 1.939 1.144 3.688 3.125 3.688h18.56c1.979 0 3.405-1.749 3.125-3.688l-0.795-5.507zM16 24.787c-2.232 0-4.042-1.792-4.042-4s1.81-4 4.042-4 4.042 1.792 4.042 4-1.811 4-4.042 4zM31.92 9.6c-0.038-2.4-6.147-6.398-15.92-6.4-9.774 0.002-15.883 4-15.92 6.4s0.034 5.523 4.056 5.003c4.706-0.61 4.416-2.253 4.416-4.602 0-1.638 3.827-2.034 7.448-2.034s7.446 0.395 7.448 2.034c0 2.349-0.29 3.992 4.416 4.602 4.021 0.52 4.093-2.603 4.056-5.003z"></path>
</symbol>
<symbol id="icon-print" viewBox="0 0 32 32">
<title>print</title>
<path d="M2.402 9.6h27.2c0.912 0 0.763-0.973 0.309-1.131-0.456-0.158-5.509-2.069-6.39-2.069h-1.12v-4.8h-12.8v4.8h-1.118c-0.88 0-5.934 1.91-6.389 2.069s-0.603 1.131 0.309 1.131zM30.4 11.2h-28.8c-0.88 0-1.6 0.72-1.6 1.6v8c0 0.882 0.72 1.6 1.6 1.6h3.653l-1.411 8h24.318l-1.413-8h3.653c0.882 0 1.6-0.718 1.6-1.6v-8c0-0.88-0.718-1.6-1.6-1.6zM7.365 27.2l1.917-11.205h13.438l1.918 11.205h-17.274z"></path>
</symbol>
<symbol id="icon-publish" viewBox="0 0 32 32">
<title>publish</title>
<path d="M15.947 13.109l-7.947 7.691h4.8v9.6h6.4v-9.6h4.8l-8.053-7.691zM28.8 1.6h-25.6c-1.76 0-3.2 1.44-3.2 3.2v19.2c0 1.76 1.44 3.2 3.2 3.2h6.4v-3.2h-6.4v-14.4h25.6v14.4h-6.4v3.2h6.4c1.76 0 3.2-1.44 3.2-3.2v-19.2c0-1.76-1.44-3.2-3.2-3.2zM4 6.8c-0.662 0-1.2-0.538-1.2-1.2s0.538-1.2 1.2-1.2c0.662 0 1.2 0.538 1.2 1.2s-0.538 1.2-1.2 1.2zM7.2 6.8c-0.662 0-1.2-0.538-1.2-1.2s0.538-1.2 1.2-1.2c0.662 0 1.2 0.538 1.2 1.2s-0.538 1.2-1.2 1.2zM28.8 6.4h-19.2v-1.6h19.23l-0.030 1.6z"></path>
</symbol>
<symbol id="icon-reply" viewBox="0 0 32 32">
<title>reply</title>
<path d="M30.4 26.696c0 0-3.56-15.571-17.6-15.571v-6.374l-11.2 10.517 11.2 10.704v-6.971c7.621-0.002 13.626 0.674 17.6 7.696z"></path>
</symbol>
<symbol id="icon-squared-cross" viewBox="0 0 32 32">
<title>squared-cross</title>
<path d="M25.6 3.2h-19.2c-1.76 0-3.2 1.44-3.2 3.2v19.2c0 1.76 1.44 3.2 3.2 3.2h19.2c1.76 0 3.2-1.44 3.2-3.2v-19.2c0-1.76-1.44-3.2-3.2-3.2zM20.898 23.662l-4.898-4.896-4.898 4.896-2.766-2.765 4.898-4.898-4.896-4.898 2.766-2.766 4.896 4.898 4.894-4.898 2.766 2.766-4.894 4.898 4.896 4.898-2.765 2.765z"></path>
</symbol>
<symbol id="icon-user" viewBox="0 0 32 32">
<title>user</title>
<path d="M12.36 3.434c-1.626 1.21-2.062 3.125-1.982 4.144 0.102 1.246 0.355 2.869 0.355 2.869s-0.501 0.272-0.501 1.366c0.174 2.747 1.093 1.562 1.282 2.766 0.454 2.902 1.493 2.386 1.493 3.97 0 2.638-1.088 3.872-4.485 5.334-3.408 1.469-6.922 3.317-6.922 6.517v1.6h28.8v-1.6c0-3.2-3.515-5.048-6.925-6.515-3.397-1.462-4.482-2.694-4.482-5.334 0-1.584 1.035-1.067 1.491-3.97 0.19-1.205 1.107-0.019 1.285-2.766 0-1.094-0.502-1.366-0.502-1.366s0.253-1.622 0.354-2.869c0.104-1.307-0.637-4.098-3.68-4.954-0.533-0.544-0.893-1.41 0.746-2.278-3.584-0.168-4.418 1.707-6.326 3.086z"></path>
</symbol>
<symbol id="icon-facebook" viewBox="0 0 32 32">
<title>facebook</title>
<path d="M27.2 1.6h-22.4c-1.76 0-3.2 1.44-3.2 3.2v22.4c0 1.762 1.44 3.2 3.2 3.2h11.2v-11.2h-3.2v-3.96h3.2v-3.28c0-3.462 1.939-5.894 6.026-5.894l2.885 0.003v4.168h-1.915c-1.59 0-2.195 1.194-2.195 2.301v2.704h4.109l-0.909 3.958h-3.2v11.2h6.4c1.76 0 3.2-1.438 3.2-3.2v-22.4c0-1.76-1.44-3.2-3.2-3.2z"></path>
</symbol>
<symbol id="icon-file-text" viewBox="0 0 32 32">
<title>file-text</title>
<path d="M27 0h-24c-1.65 0-3 1.35-3 3v26c0 1.65 1.35 3 3 3h24c1.65 0 3-1.35 3-3v-26c0-1.65-1.35-3-3-3zM26 28h-22v-24h22v24zM8 14h14v2h-14zM8 18h14v2h-14zM8 22h14v2h-14zM8 10h14v2h-14z"></path>
</symbol>
<symbol id="icon-files-empty" viewBox="0 0 32 32">
<title>files-empty</title>
<path d="M28.681 11.159c-0.694-0.947-1.662-2.053-2.724-3.116s-2.169-2.030-3.116-2.724c-1.612-1.182-2.393-1.319-2.841-1.319h-11.5c-1.379 0-2.5 1.122-2.5 2.5v23c0 1.378 1.121 2.5 2.5 2.5h19c1.378 0 2.5-1.122 2.5-2.5v-15.5c0-0.448-0.137-1.23-1.319-2.841zM24.543 9.457c0.959 0.959 1.712 1.825 2.268 2.543h-4.811v-4.811c0.718 0.556 1.584 1.309 2.543 2.268v0zM28 29.5c0 0.271-0.229 0.5-0.5 0.5h-19c-0.271 0-0.5-0.229-0.5-0.5v-23c0-0.271 0.229-0.5 0.5-0.5 0 0 11.499-0 11.5 0v7c0 0.552 0.448 1 1 1h7v15.5z"></path>
<path d="M18.841 1.319c-1.612-1.182-2.393-1.319-2.841-1.319h-11.5c-1.378 0-2.5 1.121-2.5 2.5v23c0 1.207 0.86 2.217 2 2.45v-25.45c0-0.271 0.229-0.5 0.5-0.5h15.215c-0.301-0.248-0.595-0.477-0.873-0.681z"></path>
</symbol>
<symbol id="icon-folder2" viewBox="0 0 32 32">
<title>folder2</title>
<path d="M14 4l4 4h14v22h-32v-26z"></path>
</symbol>
<symbol id="icon-folder-open" viewBox="0 0 32 32">
<title>folder-open</title>
<path d="M26 30l6-16h-26l-6 16zM4 12l-4 18v-26h9l4 4h13v4z"></path>
</symbol>
<symbol id="icon-coin-euro" viewBox="0 0 32 32">
<title>coin-euro</title>
<path d="M15 2c-8.284 0-15 6.716-15 15s6.716 15 15 15c8.284 0 15-6.716 15-15s-6.716-15-15-15zM15 29c-6.627 0-12-5.373-12-12s5.373-12 12-12c6.627 0 12 5.373 12 12s-5.373 12-12 12z"></path>
<path d="M20.963 20.136c-0.477-0.278-1.089-0.116-1.367 0.362-0.539 0.927-1.534 1.503-2.596 1.503h-4c-1.304 0-2.415-0.836-2.828-2h4.828c0.552 0 1-0.448 1-1s-0.448-1-1-1h-5v-2h5c0.552 0 1-0.448 1-1s-0.448-1-1-1h-4.828c0.413-1.164 1.524-2 2.828-2h4c1.062 0 2.057 0.576 2.596 1.503 0.278 0.477 0.89 0.639 1.367 0.361s0.639-0.89 0.361-1.367c-0.896-1.54-2.553-2.497-4.325-2.497h-4c-2.415 0-4.435 1.72-4.899 4h-1.101c-0.552 0-1 0.448-1 1s0.448 1 1 1h1v2h-1c-0.552 0-1 0.448-1 1s0.448 1 1 1h1.101c0.465 2.279 2.485 4 4.899 4h4c1.772 0 3.429-0.957 4.325-2.497 0.278-0.477 0.116-1.090-0.362-1.367z"></path>
</symbol>
<symbol id="icon-calendar" viewBox="0 0 32 32">
<title>calendar</title>
<path d="M10 12h4v4h-4zM16 12h4v4h-4zM22 12h4v4h-4zM4 24h4v4h-4zM10 24h4v4h-4zM16 24h4v4h-4zM10 18h4v4h-4zM16 18h4v4h-4zM22 18h4v4h-4zM4 18h4v4h-4zM26 0v2h-4v-2h-14v2h-4v-2h-4v32h30v-32h-4zM28 30h-26v-22h26v22z"></path>
</symbol>
<symbol id="icon-database" viewBox="0 0 32 32">
<title>database</title>
<path d="M16 0c-8.837 0-16 2.239-16 5v4c0 2.761 7.163 5 16 5s16-2.239 16-5v-4c0-2.761-7.163-5-16-5z"></path>
<path d="M16 17c-8.837 0-16-2.239-16-5v6c0 2.761 7.163 5 16 5s16-2.239 16-5v-6c0 2.761-7.163 5-16 5z"></path>
<path d="M16 26c-8.837 0-16-2.239-16-5v6c0 2.761 7.163 5 16 5s16-2.239 16-5v-6c0 2.761-7.163 5-16 5z"></path>
</symbol>
<symbol id="icon-undo2" viewBox="0 0 32 32">
<title>undo2</title>
<path d="M23.808 32c3.554-6.439 4.153-16.26-9.808-15.932v7.932l-12-12 12-12v7.762c16.718-0.436 18.58 14.757 9.808 24.238z"></path>
</symbol>
<symbol id="icon-user2" viewBox="0 0 32 32">
<title>user2</title>
<path d="M18 22.082v-1.649c2.203-1.241 4-4.337 4-7.432 0-4.971 0-9-6-9s-6 4.029-6 9c0 3.096 1.797 6.191 4 7.432v1.649c-6.784 0.555-12 3.888-12 7.918h28c0-4.030-5.216-7.364-12-7.918z"></path>
</symbol>
<symbol id="icon-users" viewBox="0 0 36 32">
<title>users</title>
<path d="M24 24.082v-1.649c2.203-1.241 4-4.337 4-7.432 0-4.971 0-9-6-9s-6 4.029-6 9c0 3.096 1.797 6.191 4 7.432v1.649c-6.784 0.555-12 3.888-12 7.918h28c0-4.030-5.216-7.364-12-7.918z"></path>
<path d="M10.225 24.854c1.728-1.13 3.877-1.989 6.243-2.513-0.47-0.556-0.897-1.176-1.265-1.844-0.95-1.726-1.453-3.627-1.453-5.497 0-2.689 0-5.228 0.956-7.305 0.928-2.016 2.598-3.265 4.976-3.734-0.529-2.39-1.936-3.961-5.682-3.961-6 0-6 4.029-6 9 0 3.096 1.797 6.191 4 7.432v1.649c-6.784 0.555-12 3.888-12 7.918h8.719c0.454-0.403 0.956-0.787 1.506-1.146z"></path>
</symbol>
<symbol id="icon-user-plus" viewBox="0 0 32 32">
<title>user-plus</title>
<path d="M12 23c0-4.726 2.996-8.765 7.189-10.319 0.509-1.142 0.811-2.411 0.811-3.681 0-4.971 0-9-6-9s-6 4.029-6 9c0 3.096 1.797 6.191 4 7.432v1.649c-6.784 0.555-12 3.888-12 7.918h12.416c-0.271-0.954-0.416-1.96-0.416-3z"></path>
<path d="M23 14c-4.971 0-9 4.029-9 9s4.029 9 9 9c4.971 0 9-4.029 9-9s-4.029-9-9-9zM28 24h-4v4h-2v-4h-4v-2h4v-4h2v4h4v2z"></path>
</symbol>
<symbol id="icon-user-check" viewBox="0 0 32 32">
<title>user-check</title>
<path d="M30 19l-9 9-3-3-2 2 5 5 11-11z"></path>
<path d="M14 24h10v-3.598c-2.101-1.225-4.885-2.066-8-2.321v-1.649c2.203-1.242 4-4.337 4-7.432 0-4.971 0-9-6-9s-6 4.029-6 9c0 3.096 1.797 6.191 4 7.432v1.649c-6.784 0.555-12 3.888-12 7.918h14v-2z"></path>
</symbol>
<symbol id="icon-search" viewBox="0 0 32 32">
<title>search</title>
<path d="M31.008 27.231l-7.58-6.447c-0.784-0.705-1.622-1.029-2.299-0.998 1.789-2.096 2.87-4.815 2.87-7.787 0-6.627-5.373-12-12-12s-12 5.373-12 12 5.373 12 12 12c2.972 0 5.691-1.081 7.787-2.87-0.031 0.677 0.293 1.515 0.998 2.299l6.447 7.58c1.104 1.226 2.907 1.33 4.007 0.23s0.997-2.903-0.23-4.007zM12 20c-4.418 0-8-3.582-8-8s3.582-8 8-8 8 3.582 8 8-3.582 8-8 8z"></path>
</symbol>
<symbol id="icon-bin" viewBox="0 0 32 32">
<title>bin</title>
<path d="M4 10v20c0 1.1 0.9 2 2 2h18c1.1 0 2-0.9 2-2v-20h-22zM10 28h-2v-14h2v14zM14 28h-2v-14h2v14zM18 28h-2v-14h2v14zM22 28h-2v-14h2v14z"></path>
<path d="M26.5 4h-6.5v-2.5c0-0.825-0.675-1.5-1.5-1.5h-7c-0.825 0-1.5 0.675-1.5 1.5v2.5h-6.5c-0.825 0-1.5 0.675-1.5 1.5v2.5h26v-2.5c0-0.825-0.675-1.5-1.5-1.5zM18 4h-6v-1.975h6v1.975z"></path>
</symbol>
<symbol id="icon-truck" viewBox="0 0 32 32">
<title>truck</title>
<path d="M32 18l-4-8h-6v-4c0-1.1-0.9-2-2-2h-18c-1.1 0-2 0.9-2 2v16l2 2h2.536c-0.341 0.588-0.536 1.271-0.536 2 0 2.209 1.791 4 4 4s4-1.791 4-4c0-0.729-0.196-1.412-0.536-2h11.073c-0.341 0.588-0.537 1.271-0.537 2 0 2.209 1.791 4 4 4s4-1.791 4-4c0-0.729-0.196-1.412-0.537-2h2.537v-6zM22 18v-6h4.146l3 6h-7.146z"></path>
</symbol>
<symbol id="icon-cross" viewBox="0 0 32 32">
<title>cross</title>
<path d="M31.708 25.708c-0-0-0-0-0-0l-9.708-9.708 9.708-9.708c0-0 0-0 0-0 0.105-0.105 0.18-0.227 0.229-0.357 0.133-0.356 0.057-0.771-0.229-1.057l-4.586-4.586c-0.286-0.286-0.702-0.361-1.057-0.229-0.13 0.048-0.252 0.124-0.357 0.228 0 0-0 0-0 0l-9.708 9.708-9.708-9.708c-0-0-0-0-0-0-0.105-0.104-0.227-0.18-0.357-0.228-0.356-0.133-0.771-0.057-1.057 0.229l-4.586 4.586c-0.286 0.286-0.361 0.702-0.229 1.057 0.049 0.13 0.124 0.252 0.229 0.357 0 0 0 0 0 0l9.708 9.708-9.708 9.708c-0 0-0 0-0 0-0.104 0.105-0.18 0.227-0.229 0.357-0.133 0.355-0.057 0.771 0.229 1.057l4.586 4.586c0.286 0.286 0.702 0.361 1.057 0.229 0.13-0.049 0.252-0.124 0.357-0.229 0-0 0-0 0-0l9.708-9.708 9.708 9.708c0 0 0 0 0 0 0.105 0.105 0.227 0.18 0.357 0.229 0.356 0.133 0.771 0.057 1.057-0.229l4.586-4.586c0.286-0.286 0.362-0.702 0.229-1.057-0.049-0.13-0.124-0.252-0.229-0.357z"></path>
</symbol>
<symbol id="icon-enter" viewBox="0 0 32 32">
<title>enter</title>
<path d="M12 16h-10v-4h10v-4l6 6-6 6zM32 0v26l-12 6v-6h-12v-8h2v6h10v-18l8-4h-18v8h-2v-10z"></path>
</symbol>
<symbol id="icon-exit" viewBox="0 0 32 32">
<title>exit</title>
<path d="M24 20v-4h-10v-4h10v-4l6 6zM22 18v8h-10v6l-12-6v-26h22v10h-2v-8h-16l8 4v18h8v-6z"></path>
</symbol>
<symbol id="icon-facebook2" viewBox="0 0 32 32">
<title>facebook2</title>
<path d="M19 6h5v-6h-5c-3.86 0-7 3.14-7 7v3h-4v6h4v16h6v-16h5l1-6h-6v-3c0-0.542 0.458-1 1-1z"></path>
</symbol>
<symbol id="icon-twitter" viewBox="0 0 32 32">
<title>twitter</title>
<path d="M32 7.075c-1.175 0.525-2.444 0.875-3.769 1.031 1.356-0.813 2.394-2.1 2.887-3.631-1.269 0.75-2.675 1.3-4.169 1.594-1.2-1.275-2.906-2.069-4.794-2.069-3.625 0-6.563 2.938-6.563 6.563 0 0.512 0.056 1.012 0.169 1.494-5.456-0.275-10.294-2.888-13.531-6.862-0.563 0.969-0.887 2.1-0.887 3.3 0 2.275 1.156 4.287 2.919 5.463-1.075-0.031-2.087-0.331-2.975-0.819 0 0.025 0 0.056 0 0.081 0 3.181 2.263 5.838 5.269 6.437-0.55 0.15-1.131 0.231-1.731 0.231-0.425 0-0.831-0.044-1.237-0.119 0.838 2.606 3.263 4.506 6.131 4.563-2.25 1.762-5.075 2.813-8.156 2.813-0.531 0-1.050-0.031-1.569-0.094 2.913 1.869 6.362 2.95 10.069 2.95 12.075 0 18.681-10.006 18.681-18.681 0-0.287-0.006-0.569-0.019-0.85 1.281-0.919 2.394-2.075 3.275-3.394z"></path>
</symbol>
</defs>
</svg>
